<?xml version="1.0"?>
<svg xmlns="http://www.w3.org/2000/svg" xmlns:xlink="http://www.w3.org/1999/xlink" version="1.1" id="Capa_1" x="0px" y="0px" width="512px" height="512px" viewBox="0 0 555.695 555.695" style="enable-background:new 0 0 555.695 555.695;" xml:space="preserve" class=""><g transform="matrix(0.710553, 0, 0, 0.710553, 80.422, 80.422)"><g>
	<path d="M35.496,417.384H12.24c-7.344,0-12.24-4.896-12.24-12.24s4.896-12.24,12.24-12.24h11.016v12.24   C23.256,412.487,29.376,417.384,35.496,417.384z M555.695,405.144c0,7.344-4.895,12.24-12.238,12.24h-23.258H396.576v8.568   c8.568,1.224,15.912,8.567,15.912,18.359s-8.568,18.36-18.359,18.36h-15.912H177.48h-15.912c-9.792,0-18.36-8.568-18.36-18.36   s7.344-17.136,15.912-18.359v-8.568H35.496c-7.344,0-12.24-4.896-12.24-12.24v-12.24V235.008c0-7.344,4.896-12.24,12.24-12.24   H159.12v-36.72c0-9.792,8.568-18.36,18.36-18.36h82.008V68.543c0-9.792,8.568-18.36,18.36-18.36   c9.792,0,17.136,7.344,18.361,17.136h68.543c3.672,0,6.121,2.448,6.121,6.12v51.408c0,3.672-2.449,6.12-6.121,6.12h-68.543v36.72   h82.008c9.791,0,18.359,8.568,18.359,18.36v36.72h123.623c7.346,0,12.24,4.896,12.24,12.24v157.896h11.018   C549.576,392.903,555.695,399.023,555.695,405.144z M359.855,392.903V204.408H195.84v188.496v24.48v8.568h19.584v-8.568v-24.48   v-57.527c0-9.792,8.568-18.36,18.36-18.36h88.128c9.791,0,18.359,8.568,18.359,18.36v57.527v24.48v8.568h19.584v-8.568V392.903   L359.855,392.903z M159.12,392.903v-116.28H47.736v116.28H159.12z M507.961,392.903v-116.28H396.576v116.28H507.961z    M440.641,293.76h-24.48c-3.672,0-6.119,2.448-6.119,6.12v24.479c0,3.672,2.447,6.12,6.119,6.12h24.48   c3.672,0,6.119-2.448,6.119-6.12V299.88C446.76,296.208,443.088,293.76,440.641,293.76z M265.608,222.768h-42.84   c-3.672,0-6.12,2.448-6.12,6.12v24.48c0,3.672,2.448,6.12,6.12,6.12h42.84c3.672,0,6.12-2.448,6.12-6.12v-24.48   C271.728,225.216,268.056,222.768,265.608,222.768z M265.608,269.28h-42.84c-3.672,0-6.12,2.448-6.12,6.12v24.48   c0,3.672,2.448,6.12,6.12,6.12h42.84c3.672,0,6.12-2.448,6.12-6.12v-24.48C271.728,271.728,268.056,269.28,265.608,269.28z    M334.152,222.768h-42.84c-3.672,0-6.121,2.448-6.121,6.12v24.48c0,3.672,2.449,6.12,6.121,6.12h42.84   c3.672,0,6.119-2.448,6.119-6.12v-24.48C340.271,225.216,337.824,222.768,334.152,222.768z M334.152,269.28h-42.84   c-3.672,0-6.121,2.448-6.121,6.12v24.48c0,3.672,2.449,6.12,6.121,6.12h42.84c3.672,0,6.119-2.448,6.119-6.12v-24.48   C340.271,271.728,337.824,269.28,334.152,269.28z M440.641,341.496h-24.48c-3.672,0-6.119,2.447-6.119,6.119v24.48   c0,3.672,2.447,6.12,6.119,6.12h24.48c3.672,0,6.119-2.448,6.119-6.12v-24.48C446.76,343.943,443.088,341.496,440.641,341.496z    M490.824,293.76h-24.48c-3.672,0-6.119,2.448-6.119,6.12v24.479c0,3.672,2.447,6.12,6.119,6.12h24.48   c3.672,0,6.119-2.448,6.119-6.12V299.88C496.943,296.208,494.496,293.76,490.824,293.76z M490.824,341.496h-24.48   c-3.672,0-6.119,2.447-6.119,6.119v24.48c0,3.672,2.447,6.12,6.119,6.12h24.48c3.672,0,6.119-2.448,6.119-6.12v-24.48   C496.943,343.943,494.496,341.496,490.824,341.496z M89.352,293.76h-24.48c-3.672,0-6.12,2.448-6.12,6.12v24.479   c0,3.672,2.448,6.12,6.12,6.12h24.48c3.672,0,6.12-2.448,6.12-6.12V299.88C95.472,296.208,93.024,293.76,89.352,293.76z    M89.352,341.496h-24.48c-3.672,0-6.12,2.447-6.12,6.119v24.48c0,3.672,2.448,6.12,6.12,6.12h24.48c3.672,0,6.12-2.448,6.12-6.12   v-24.48C95.472,343.943,93.024,341.496,89.352,341.496z M139.536,293.76h-24.48c-3.672,0-6.12,2.448-6.12,6.12v24.479   c0,3.672,2.448,6.12,6.12,6.12h24.48c3.672,0,6.12-2.448,6.12-6.12V299.88C145.656,296.208,143.208,293.76,139.536,293.76z    M139.536,341.496h-24.48c-3.672,0-6.12,2.447-6.12,6.119v24.48c0,3.672,2.448,6.12,6.12,6.12h24.48c3.672,0,6.12-2.448,6.12-6.12   v-24.48C145.656,343.943,143.208,341.496,139.536,341.496z M430.848,468.792h-306c-9.792,0-18.36,8.567-18.36,18.359   s8.568,18.36,18.36,18.36h306c9.793,0,18.361-8.568,18.361-18.36S440.641,468.792,430.848,468.792z" data-original="#000000" class="active-path" data-old_color="#ffffff" fill="#ffffff"/>
</g></g> </svg>
