<svg width="97.391" height="97.391" xmlns="http://www.w3.org/2000/svg">

 <g>
  <title>background</title>
  <rect fill="none" id="canvas_background" height="402" width="582" y="-1" x="-1"/>
 </g>
 <g>
  <title>Layer 1</title>
  <g id="svg_1" transform="matrix(0.895338, 0, 0, 0.895338, 5.09655, 5.09655)">
   <g id="svg_2">
    <path id="svg_3" fill="#244776" class="active-path" d="m0,7.573l17.5,0l0,8.75l-17.5,0l0,-8.75zm0,12.25l17.5,0l0,59.500998l-17.5,0l0,-59.500998zm3.208,48.488997c0,3.021004 2.447,5.470001 5.469,5.470001c3.021,0 5.469,-2.446999 5.469,-5.470001s-2.448,-5.469997 -5.469,-5.469997c-3.022,0.000999 -5.469,2.451 -5.469,5.469997zm-3.208,21.512001l17.5,0l0,-7l-17.5,0l0,7zm21,-8.223999l0,1.224998l0,7l22.75,0l0,-8.267998c-0.929001,-0.664001 -3.814999,-2.232002 -10.5,-2.232002c-6.337,-0.000999 -10.384001,1.419006 -12.25,2.275002zm0,-50.342999c1.865999,0.854 5.913,2.276001 12.25,2.276001c6.643002,-0.000999 9.535999,-1.550001 10.5,-2.245001l0,-6.215l-22.75,0l0,6.184zm0,3.789001l0,42.763996c2.534,-0.947998 6.591999,-1.985001 12.25,-1.985001c5.105,0 8.417,0.854004 10.5,1.767006l0,-42.324001c-2.083,0.91 -5.395,1.764999 -10.5,1.764999c-5.658001,-0.002003 -9.716,-1.039001 -12.25,-1.987zm59.859001,-27.866002l-12,2.462l1.760002,8.570999l12,-2.461999l-1.760002,-8.571001zm14.419998,70.289002l-11.998001,2.462997l-11.960999,-58.289l12,-2.462l11.959,58.288002zm-4.163002,-10.389c-0.606995,-2.957001 -2.972,-4.971001 -5.274994,-4.498001c-2.307007,0.474998 -3.688004,3.257996 -3.077003,6.214996c0.606003,2.957001 2.969002,4.973 5.274002,4.498001c2.307999,-0.473 3.686996,-3.253998 3.077995,-6.214996zm4.868004,13.812996l-12.001999,2.464005l1.407997,6.853996l12,-2.462997l-1.405998,-6.855003zm-46.984001,-64.569998l17.5,0l0,-8.75l-17.5,0l0,8.75zm0,73.500998l17.5,0l0,-7l-17.5,0l0,7zm0,-19.25l17.5,0l0,-42.000998l-17.5,0l0,42.000998zm0,8.75l17.5,0l0,-5.25l-17.5,0l0,5.25zm0,-54.250998l17.5,0l0,-5.25l-17.5,0l0,5.25z"/>
   </g>
  </g>
  <rect id="svg_6" height="72.375004" width="14.374999" y="12.507996" x="5.6955" stroke-width="1.5" stroke="#244776" fill="#244776"/>
  <rect id="svg_4" height="43.624999" width="11.5" y="14.383" x="6.945499" stroke-width="1.5" stroke="#ffffff" fill="#81ba35"/>
  <ellipse ry="4.1875" rx="4.3125" id="svg_5" cy="74.320497" cx="12.632999" stroke-width="1.5" stroke="#81ba35" fill="#81ba35"/>
  <rect id="svg_7" height="73.500005" width="14.249999" y="11.882996" x="22.5705" stroke-width="0.2" stroke="#333333" fill="#ffffff"/>
  <rect id="svg_8" height="37.75" width="9.625" y="14.383" x="24.6955" stroke-width="2" stroke="#244776" fill="#ffffff"/>
  <ellipse ry="2.6875" rx="2.6875" id="svg_9" cy="74.070497" cx="29.507999" stroke-width="1.5" stroke="#244776" fill="#244776"/>
  <rect id="svg_10" height="45.249999" width="6.125" y="39.382999" x="38.445499" stroke-width="1.5" stroke="#244776" fill="#244776"/>
  <rect id="svg_11" height="22.499999" width="6.875" y="27.007999" x="37.695499" stroke-width="1.5" stroke="#b2b2b2" fill="#b2b2b2"/>
  <rect id="svg_12" height="72.375004" width="14.374999" y="12.382996" x="49.6955" stroke-width="1.5" stroke="#244776" fill="#244776"/>
  <rect id="svg_13" height="43.624999" width="11.5" y="14.258" x="7.320499" stroke-width="1.5" stroke="#ffffff" fill="#81ba35"/>
  <ellipse ry="4.1875" rx="4.3125" id="svg_14" cy="74.195497" cx="12.382999" stroke-width="1.5" stroke="#81ba35" fill="#81ba35"/>
  <rect id="svg_15" height="43.624999" width="11.5" y="14.258" x="51.195499" stroke-width="1.5" stroke="#ffffff" fill="#81ba35"/>
  <ellipse ry="4.1875" rx="4.3125" id="svg_16" cy="74.445497" cx="56.882999" stroke-width="1.5" stroke="#81ba35" fill="#81ba35"/>
 </g>
</svg>