<?xml version="1.0"?>
<svg xmlns="http://www.w3.org/2000/svg" xmlns:xlink="http://www.w3.org/1999/xlink" version="1.1" viewBox="0 0 252 252" width="50px" height="50px"><g transform=""><g fill="none" fill-rule="nonzero" stroke="none" stroke-width="1" stroke-linecap="butt" stroke-linejoin="miter" stroke-miterlimit="10" stroke-dasharray="" stroke-dashoffset="0" font-family="none" font-weight="none" font-size="none" text-anchor="none" style="mix-blend-mode: normal"><path d="M0,252v-252h252v252z" fill="none"/><g fill="#ffffff"><g id="surface1"><path d="M59.39063,21l14.10937,52.5v31.5h10.5v-31.5l15.09375,-52.5h-11.15625l-8.20312,32.8125h-0.98438l-7.54687,-32.8125zM121.07813,42c-4.92187,0 -8.90039,1.51758 -11.8125,4.26563c-2.91211,2.74805 -4.26562,6.19336 -4.26562,10.82813v31.17187c0,5.08594 1.43555,9.14649 4.26563,12.14063c2.8711,2.99414 6.72656,4.59375 11.48438,4.59375c4.92188,0 8.6543,-1.35351 11.48437,-4.26562c2.78906,-2.95313 4.26562,-7.01367 4.26562,-12.14063v-31.17187c0,-4.55274 -1.39453,-8.28515 -4.26562,-11.15625c-2.87109,-2.91211 -6.64453,-4.26562 -11.15625,-4.26562zM147,42v51.51562c0,3.65039 0.65625,7.05469 1.96875,8.85938c1.27149,1.80469 3.03516,2.625 5.57812,2.625c2.05079,0 4.38867,-0.69726 6.5625,-1.96875c2.21485,-1.27149 4.22461,-3.11719 6.23438,-5.57812v7.54688h11.15625v-63h-10.5v46.26562c-1.02539,1.3125 -3.36328,2.46094 -4.59375,3.28125c-1.23046,0.86133 -2.13281,1.3125 -2.95312,1.3125c-1.02539,0 -1.8457,-0.36914 -2.29687,-0.98438c-0.49219,-0.65625 -0.65625,-1.8457 -0.65625,-3.28125v-46.59375zM120.75,52.5c1.43555,0 3.07617,0.20508 3.9375,0.98437c0.90235,0.82031 1.3125,2.00976 1.3125,3.28125v32.8125c0,1.59961 -0.45117,2.70704 -1.3125,3.60937c-0.86133,0.94336 -2.46094,1.3125 -3.9375,1.3125c-1.43555,0 -3.19921,-0.41015 -3.9375,-1.3125c-0.7793,-0.90234 -1.3125,-2.00976 -1.3125,-3.60937c0,-0.08203 0,-0.24609 0,-0.32812v-31.5c0,-0.08203 0,-0.24609 0,-0.32812v-0.65625c0,-1.27149 0.49219,-2.46094 1.3125,-3.28125c0.82031,-0.7793 2.625,-0.98437 3.9375,-0.98437zM52.5,115.5c-11.5664,0 -21,9.4336 -21,21v73.5c0,11.56641 9.4336,21 21,21h147c11.56641,0 21,-9.43359 21,-21v-73.5c0,-11.5664 -9.43359,-21 -21,-21zM51.51563,126h33.14062c0.73829,0 1.3125,0.57422 1.3125,1.3125v9.51562c0,0.61524 -0.57421,1.3125 -1.3125,1.3125h-9.84375v70.875c0,0.61524 -0.69726,1.3125 -1.3125,1.3125h-10.5c-0.61524,0 -1.3125,-0.69726 -1.3125,-1.3125v-70.875h-10.17187c-0.73828,0 -1.3125,-0.69726 -1.3125,-1.3125v-9.51562c0,-0.73828 0.57422,-1.3125 1.3125,-1.3125zM126,126h10.5c0.61524,0 1.3125,0.57422 1.3125,1.3125v23.95312c0.94336,-0.82031 1.68164,-1.35351 2.625,-1.96875c1.80469,-0.94336 4.67579,-2.29687 6.5625,-2.29687c3.77344,0 6.84961,1.43555 8.85938,4.26562c2.00976,2.74805 1.64063,9.1875 1.64063,14.10938v34.125c0,8.44922 -5.66015,11.48438 -10.5,11.48438c-2.21484,0 -4.67578,-0.69726 -6.5625,-1.64062c-0.94336,-0.41015 -1.68164,-1.23046 -2.625,-1.96875v1.3125c0,0.61524 -0.69726,1.3125 -1.3125,1.3125h-10.5c-0.61524,0 -1.3125,-0.69726 -1.3125,-1.3125v-81.375c0,-0.73828 0.69726,-1.3125 1.3125,-1.3125zM84,147h10.5c0.61524,0 1.3125,0.69726 1.3125,1.3125v46.92188c0,2.05079 0.69726,2.95313 1.64063,2.95313c1.35351,0 5.41406,-2.66601 6.23438,-3.60937v-46.26563c0,-0.61524 0.69726,-1.3125 1.3125,-1.3125h10.5c0.73829,0 1.3125,0.69726 1.3125,1.3125v60.375c0,0.61524 -0.57421,1.3125 -1.3125,1.3125h-10.5c-0.73828,0 -1.3125,-0.69726 -1.3125,-1.3125v-3.28125c-1.47656,1.35351 -8.4082,5.57812 -12.14063,5.57812c-2.95312,0 -5.08594,-1.18945 -6.5625,-3.28125c-1.47656,-1.88671 -2.29688,-4.51171 -2.29688,-8.20312v-51.1875c0,-0.61524 0.69726,-1.3125 1.3125,-1.3125zM183.09375,147c5.37305,0 8.98242,1.68164 11.8125,4.92188c2.83008,3.1582 4.59375,7.66992 4.59375,13.45313v13.125c0,0.61524 -0.36914,1.3125 -0.98437,1.3125h-20.01563v12.46875c0,9.22851 10.5,8.98242 10.5,0.65625v-3.9375c0,-0.61524 0.12305,-1.27149 0.98438,-1.3125l8.20313,-0.32813c0.73829,0 1.3125,0.69726 1.3125,1.3125v4.26563c0,14.39649 -11.2793,17.39063 -17.0625,17.39063c-5.12695,0 -15.09375,-5.12695 -15.09375,-17.71875v-27.23438c0,-15.33984 10.62305,-18.375 15.75,-18.375zM184.07812,157.5c-1.14844,-0.08203 -2.46094,0.20508 -3.60937,1.3125c-0.32813,0.5332 -0.65625,1.88672 -0.65625,4.59375v4.59375h8.20313v-4.59375c0,-2.70703 -0.57421,-4.06055 -0.98437,-4.59375c-0.7793,-0.7793 -1.80469,-1.23046 -2.95313,-1.3125zM142.40625,158.8125c-0.94336,-0.12305 -2.05078,-0.16406 -2.95312,0.32812c-0.5332,0.20508 -1.10742,0.7793 -1.64062,1.3125v37.07813c0.73829,0.73829 1.43555,0.98437 1.96875,1.3125c0.61524,0.32813 1.23047,0.65625 1.96875,0.65625c1.35351,0 3.60937,-0.12305 3.60937,-3.9375v-32.15625c0,-1.68164 -0.36914,-2.87109 -0.98437,-3.60937c-0.36914,-0.57421 -1.02539,-0.86133 -1.96875,-0.98437z"/></g></g><path d="M126,252c-69.58788,0 -126,-56.41212 -126,-126v0c0,-69.58788 56.41212,-126 126,-126h0c69.58788,0 126,56.41212 126,126v0c0,69.58788 -56.41212,126 -126,126z" fill="none"/><path d="M126,246.96c-66.80436,0 -120.96,-54.15564 -120.96,-120.96v0c0,-66.80436 54.15564,-120.96 120.96,-120.96v0c66.80436,0 120.96,54.15564 120.96,120.96v0c0,66.80436 -54.15564,120.96 -120.96,120.96z" fill="none"/></g></g></svg>
